# xmcd
#
# Track frame offsets:
#	150
#	16923
#	33022
#	49062
#	67185
#	87371
#	106113
#	122910
#	141725
#	161282
#	182373
#	200486
#	217841
#	234044
#
# Disc length: 3375 seconds
#
# Revision: 0
# Processed by: cddbd v1.5.1PL2 Copyright (c) Steve Scherf et al.
# Submitted via: EasyCDDAExtractor 8.1.2.3
#
DISCID=b30d2d0e
DTITLE=Sté Strausz - Fidèle a moi-meme
DYEAR=2005
DGENRE=Rap
TTITLE0=Futur Du Rap
TTITLE1=Fidèle à Moi Même ft Pegguy Tabu
TTITLE2=Toutes Ces Femmes
TTITLE3=Tueurs Nés ft John Gali
TTITLE4=Renaissance
TTITLE5=Ma Vie
TTITLE6=Tu Rentres Pas ft Doudou Masta
TTITLE7=Pour L'Argent ft Alibi Montana
TTITLE8=La Flemme
TTITLE9=Sexe Opposé
TTITLE10=Les Mots Qui Suffisent
TTITLE11=Beat Box
TTITLE12=Ninety Nine
TTITLE13=Une Décennie ft Princess Anies
EXTD=
EXTT0=
EXTT1=
EXTT2=
EXTT3=
EXTT4=
EXTT5=
EXTT6=
EXTT7=
EXTT8=
EXTT9=
EXTT10=
EXTT11=
EXTT12=
EXTT13=
PLAYORDER=
